<svg width="55" height="55" viewBox="0 0 55 55" fill="none" xmlns="http://www.w3.org/2000/svg">
<path d="M54.5448 18.0132V29.9518C54.5448 34.4047 50.9269 38.025 46.477 38.025H26.0743C24.0531 38.025 22.2584 37.0482 21.1346 35.5443C20.363 34.5138 19.9051 33.2365 19.9051 31.8518C19.9051 28.5638 22.4966 25.8632 25.7422 25.6937C25.9149 22.4409 28.6103 19.8528 31.9012 19.8528C35.3028 19.8528 38.0703 22.6222 38.0703 26.0227V33.5839H35.3397V26.0227C35.3397 24.1294 33.7966 22.5869 31.9012 22.5869C30.0092 22.5869 28.4627 24.1311 28.4627 26.0227C28.4627 26.308 28.4996 26.5883 28.5667 26.8635C28.6858 27.3285 28.5483 27.8186 28.2061 28.161C27.8673 28.5 27.3775 28.6376 26.9129 28.5185C26.6395 28.4496 26.3577 28.4178 26.0726 28.4178C24.1806 28.4178 22.6341 29.9619 22.6341 31.8535C22.6341 33.7501 24.1806 35.2926 26.0726 35.2926H46.4753C49.419 35.2926 51.8125 32.8941 51.8125 29.9518V19.3795H36.7033C35.9469 19.3795 35.338 18.7669 35.338 18.0132V8.23142C35.338 5.28916 32.9411 2.8907 29.9975 2.8907H19.4355V18.0132C19.4355 18.7669 18.8233 19.3795 18.0702 19.3795H8.29818C5.35451 19.3795 2.961 21.7729 2.961 24.7202V35.2926H18.0702C18.4442 35.2926 18.7864 35.4436 19.0363 35.692C19.2812 35.9404 19.4355 36.2795 19.4355 36.6588V46.4372C19.4355 49.3862 21.829 51.7813 24.7693 51.7813H35.338V39.7672H38.0687V53.1476C38.0687 53.9012 37.4565 54.5138 36.7033 54.5138H24.7693C20.3228 54.5138 16.7048 50.8901 16.7048 46.4372V38.025H1.59567C0.842563 38.025 0.230347 37.4124 0.230347 36.6588V24.7202C0.230347 20.2707 3.84829 16.647 8.29818 16.647H16.7048V1.52447C16.7048 0.767499 17.3137 0.158234 18.0702 0.158234H29.9975C34.4474 0.158234 38.0687 3.77858 38.0687 8.23142V16.647H53.1778C53.936 16.647 54.5448 17.2563 54.5448 18.0132Z" fill="#B2D1FB"/>
</svg>
