<?xml version="1.0" encoding="utf-8"?>
<!-- Generator: Adobe Illustrator 24.3.0, SVG Export Plug-In . SVG Version: 6.00 Build 0)  -->
<svg version="1.1" xmlns="http://www.w3.org/2000/svg" xmlns:xlink="http://www.w3.org/1999/xlink" x="0px" y="0px"
	 viewBox="0 0 500 500" style="enable-background:new 0 0 500 500;" xml:space="preserve">
<style type="text/css">
	.st0{display:none;}
	.st1{display:inline;}
	.st2{fill:#F7F9FA;}
	.st3{display:none;fill:url(#SVGID_1_);}
	.st4{display:inline;fill:url(#SVGID_2_);}
	.st5{display:inline;fill:url(#SVGID_3_);}
	.st6{display:inline;fill:url(#SVGID_4_);}
	.st7{fill:#8DAEF2;}
	.st8{fill:#4D6DBF;}
	.st9{font-family:'Dosis-Bold';}
	.st10{font-size:42px;}
	.st11{font-family:'Dosis-Regular';}
	.st12{font-size:26.625px;}
</style>
<g id="BACKGROUND" class="st0">
	<g class="st1">
		<rect class="st2" width="500" height="500"/>
	</g>
</g>
<g id="OBJECTS">
	<linearGradient id="SVGID_1_" gradientUnits="userSpaceOnUse" x1="-46.8713" y1="463.1239" x2="745.4078" y2="227.9422">
		<stop  offset="0" style="stop-color:#6156C0"/>
		<stop  offset="1" style="stop-color:#71C8CB"/>
	</linearGradient>
	<rect y="250" class="st3" width="500" height="250"/>
	<g class="st0">
		<linearGradient id="SVGID_2_" gradientUnits="userSpaceOnUse" x1="194.3307" y1="76.2517" x2="106.5415" y2="183.2132">
			<stop  offset="0" style="stop-color:#6156C0"/>
			<stop  offset="1" style="stop-color:#71C8CB"/>
		</linearGradient>
		<path class="st4" d="M222.02,100.09h-41.94V76.75c0-12.35-10.04-22.4-22.39-22.4h-33.11c-1.31,0-2.46,0.66-3.14,1.67
			c-0.41,0.61-0.65,1.34-0.65,2.12v41.95H97.46c-12.34,0-22.39,10.04-22.39,22.38v33.12c0,2.09,1.7,3.79,3.79,3.79h41.93v23.33
			c0,12.35,10.05,22.39,22.39,22.39h33.11c2.09,0,3.79-1.69,3.79-3.79v-41.93h23.33c12.35,0,22.4-10.05,22.4-22.4v-33.1
			C225.81,101.78,224.11,100.09,222.02,100.09z M146.79,151.8c-5.25,0-9.53-4.28-9.53-9.54c0-5.25,4.28-9.53,9.53-9.53
			c0.79,0,1.57,0.09,2.33,0.28c1.29,0.33,2.65-0.05,3.59-0.99c0.95-0.95,1.33-2.31,1-3.6c-0.19-0.76-0.28-1.54-0.28-2.33
			c0-5.25,4.28-9.54,9.53-9.54c5.26,0,9.54,4.29,9.54,9.54v25.71H146.79z M218.23,136.98c0,8.17-6.64,14.82-14.82,14.82h-23.33
			v-25.71c0-9.44-7.68-17.12-17.12-17.12c-9.12,0-16.61,7.19-17.08,16.2c-9.02,0.48-16.2,7.96-16.2,17.09
			c0,3.85,1.28,7.41,3.43,10.27c0.98,1.31,2.14,2.47,3.45,3.44c2.85,2.14,6.4,3.41,10.23,3.41h25.71v38.14h-29.32
			c-8.17,0-14.81-6.64-14.81-14.81v-27.12c0-0.92-0.33-1.76-0.87-2.41c-0.07-0.1-0.16-0.18-0.24-0.27
			c-0.69-0.69-1.64-1.11-2.68-1.11H82.65v-29.33c0-8.16,6.64-14.8,14.81-14.8h27.12c2.09,0,3.79-1.7,3.79-3.79V61.93h29.32
			c8.16,0,14.81,6.65,14.81,14.82v27.13c0,2.09,1.7,3.79,3.79,3.79h41.94V136.98z"/>
		<linearGradient id="SVGID_3_" gradientUnits="userSpaceOnUse" x1="176.0191" y1="158.3935" x2="176.3898" y2="180.8181">
			<stop  offset="0" style="stop-color:#000000"/>
			<stop  offset="1" style="stop-color:#000000;stop-opacity:0"/>
		</linearGradient>
		<polygon class="st5" points="172.5,159.38 180.08,159.38 180.08,166.38 172.5,190.48 		"/>
		<linearGradient id="SVGID_4_" gradientUnits="userSpaceOnUse" x1="176.6146" y1="157.3221" x2="176.2439" y2="140.2718">
			<stop  offset="0" style="stop-color:#000000"/>
			<stop  offset="1" style="stop-color:#000000;stop-opacity:0"/>
		</linearGradient>
		<polygon class="st6" points="172.5,151.8 172.5,148.96 180.08,133.21 180.08,151.8 		"/>
	</g>
	<g>
		<g>
			<path class="st7" d="M415.58,216.23v71.13c0,26.53-21.57,48.1-48.1,48.1H245.84c-12.05,0-22.75-5.82-29.45-14.78
				c-4.6-6.14-7.33-13.75-7.33-22c0-19.59,15.45-35.68,34.8-36.69c1.03-19.38,17.1-34.8,36.72-34.8c20.28,0,36.78,16.5,36.78,36.76
				V309h-16.28v-45.05c0-11.28-9.2-20.47-20.5-20.47c-11.28,0-20.5,9.2-20.5,20.47c0,1.7,0.22,3.37,0.62,5.01
				c0.71,2.77-0.11,5.69-2.15,7.73c-2.02,2.02-4.94,2.84-7.71,2.13c-1.63-0.41-3.31-0.6-5.01-0.6c-11.28,0-20.5,9.2-20.5,20.47
				c0,11.3,9.22,20.49,20.5,20.49h121.64c17.55,0,31.82-14.29,31.82-31.82v-62.99h-90.08c-4.51,0-8.14-3.65-8.14-8.14v-58.28
				c0-17.53-14.29-31.82-31.84-31.82h-62.97v90.1c0,4.49-3.65,8.14-8.14,8.14h-58.26c-17.55,0-31.82,14.26-31.82,31.82v62.99h90.08
				c2.23,0,4.27,0.9,5.76,2.38c1.46,1.48,2.38,3.5,2.38,5.76v58.26c0,17.57,14.27,31.84,31.8,31.84h63.01v-71.58h16.28v79.72
				c0,4.49-3.65,8.14-8.14,8.14h-71.15c-26.51,0-48.08-21.59-48.08-48.12v-50.12H99.9c-4.49,0-8.14-3.65-8.14-8.14v-71.13
				c0-26.51,21.57-48.1,48.1-48.1h50.12v-90.1c0-4.51,3.63-8.14,8.14-8.14h71.11c26.53,0,48.12,21.57,48.12,48.1v50.14h90.08
				C411.95,208.09,415.58,211.72,415.58,216.23z"/>
		</g>
	</g>
</g>
<g id="TEXTS" class="st0">
	<g class="st1">
		<text transform="matrix(1 0 0 1 241.6633 136.9737)" class="st8 st9 st10">PHARMACY</text>
	</g>
	<g class="st1">
		<text transform="matrix(1 0 0 1 241.6638 176.0645)" class="st8 st11 st12">SLOGAN HERE</text>
	</g>
	<g class="st1">
		<text transform="matrix(1 0 0 1 241.6205 375.077)" class="st2 st9 st10">PHARMACY</text>
	</g>
	<g class="st1">
		<text transform="matrix(1 0 0 1 241.621 414.1678)" class="st2 st11 st12">SLOGAN HERE</text>
	</g>
</g>
</svg>
